<svg xmlns="http://www.w3.org/2000/svg" width="1600" height="900" viewBox="0 0 1600 900" role="img" aria-label="Infinoid Secure control room placeholder"><defs><linearGradient id="bg" x1="0" y1="0" x2="1" y2="1"><stop offset="0%" stop-color="#0f172a"/><stop offset="45%" stop-color="#1e293b"/><stop offset="100%" stop-color="#00afc4"/></linearGradient><linearGradient id="panel" x1="0" y1="0" x2="0" y2="1"><stop offset="0%" stop-color="#e2e8f0"/><stop offset="100%" stop-color="#94a3b8"/></linearGradient></defs><rect width="1600" height="900" fill="url(#bg)"/><circle cx="1280" cy="180" r="260" fill="#00afc4" opacity="0.16"/><circle cx="260" cy="720" r="300" fill="#ffffff" opacity="0.06"/><rect x="120" y="170" width="1360" height="560" rx="36" fill="#0b1220" opacity="0.76" stroke="#ffffff" stroke-opacity="0.08"/><g opacity="0.95"><rect x="160" y="220" width="300" height="168" rx="18" fill="#111827" stroke="#22d3ee" stroke-opacity="0.28"/><rect x="490" y="220" width="300" height="168" rx="18" fill="#111827" stroke="#22d3ee" stroke-opacity="0.28"/><rect x="820" y="220" width="300" height="168" rx="18" fill="#111827" stroke="#22d3ee" stroke-opacity="0.28"/><rect x="1150" y="220" width="260" height="168" rx="18" fill="#111827" stroke="#22d3ee" stroke-opacity="0.28"/><rect x="160" y="430" width="460" height="240" rx="22" fill="#0f172a" stroke="#ffffff" stroke-opacity="0.08"/><rect x="650" y="430" width="760" height="240" rx="22" fill="#0f172a" stroke="#ffffff" stroke-opacity="0.08"/></g><g><rect x="180" y="452" width="180" height="8" rx="4" fill="#00afc4"/><rect x="180" y="474" width="120" height="8" rx="4" fill="#94a3b8"/><rect x="180" y="520" width="220" height="8" rx="4" fill="#94a3b8"/><rect x="180" y="546" width="160" height="8" rx="4" fill="#94a3b8"/></g><g><rect x="680" y="452" width="210" height="8" rx="4" fill="#00afc4"/><rect x="680" y="476" width="150" height="8" rx="4" fill="#94a3b8"/><rect x="680" y="522" width="320" height="8" rx="4" fill="#94a3b8"/><rect x="680" y="548" width="260" height="8" rx="4" fill="#94a3b8"/></g><g transform="translate(1110 500)"><rect x="0" y="0" width="260" height="100" rx="18" fill="#ffffff" opacity="0.06"/><text x="24" y="42" font-family="Inter,Arial,sans-serif" font-size="28" font-weight="700" fill="#e2e8f0">INFINOID</text><text x="24" y="74" font-family="Inter,Arial,sans-serif" font-size="16" fill="#94a3b8">Secure Control Room</text></g><text x="120" y="110" font-family="Inter,Arial,sans-serif" font-size="54" font-weight="700" fill="#ffffff">Enterprise AI Monitoring</text><text x="120" y="150" font-family="Inter,Arial,sans-serif" font-size="24" fill="#cbd5e1">Temporary branded placeholder for hero usage</text></svg>