<svg xmlns="http://www.w3.org/2000/svg" width="1600" height="900" viewBox="0 0 1600 900" role="img" aria-label="Infinoid Secure smart city placeholder"><defs><linearGradient id="g" x1="0" y1="0" x2="1" y2="1"><stop offset="0%" stop-color="#f8fafc"/><stop offset="50%" stop-color="#dbeafe"/><stop offset="100%" stop-color="#00afc4"/></linearGradient></defs><rect width="1600" height="900" fill="url(#g)"/><rect x="0" y="620" width="1600" height="280" fill="#0f172a" opacity="0.9"/><g fill="#111827" opacity="0.9"><rect x="120" y="420" width="120" height="200" rx="16"/><rect x="260" y="340" width="150" height="280" rx="16"/><rect x="440" y="470" width="90" height="150" rx="16"/><rect x="560" y="300" width="180" height="320" rx="16"/><rect x="770" y="390" width="120" height="230" rx="16"/><rect x="920" y="280" width="200" height="340" rx="16"/><rect x="1150" y="430" width="140" height="190" rx="16"/><rect x="1320" y="360" width="150" height="260" rx="16"/></g><g opacity="0.85"><circle cx="1240" cy="240" r="110" fill="#ffffff"/><circle cx="1240" cy="240" r="72" fill="#00afc4" opacity="0.3"/><path d="M1200 240l30 24 52-62" fill="none" stroke="#0f172a" stroke-width="16" stroke-linecap="round" stroke-linejoin="round"/></g><g fill="#22d3ee" opacity="0.7"><circle cx="200" cy="200" r="8"/><circle cx="370" cy="170" r="8"/><circle cx="840" cy="150" r="8"/><circle cx="1080" cy="210" r="8"/><circle cx="1420" cy="170" r="8"/></g><text x="120" y="110" font-family="Inter,Arial,sans-serif" font-size="54" font-weight="700" fill="#0f172a">Smart City Security</text><text x="120" y="150" font-family="Inter,Arial,sans-serif" font-size="24" fill="#334155">Infinoid Secure temporary visual asset</text><text x="1040" y="770" font-family="Inter,Arial,sans-serif" font-size="34" font-weight="700" fill="#e2e8f0">INFINOID</text><text x="1040" y="812" font-family="Inter,Arial,sans-serif" font-size="18" fill="#94a3b8">City monitoring intelligence</text></svg>